<?xml version="1.0" encoding="UTF-8" standalone="no"?>
<!-- Created with Inkscape (http://www.inkscape.org/) -->

<svg
   width="210mm"
   height="210mm"
   viewBox="0 0 210 210"
   version="1.1"
   id="svg5"
   xml:space="preserve"
   inkscape:version="1.2.2 (732a01da63, 2022-12-09, custom)"
   sodipodi:docname="logo.svg"
   xmlns:inkscape="http://www.inkscape.org/namespaces/inkscape"
   xmlns:sodipodi="http://sodipodi.sourceforge.net/DTD/sodipodi-0.dtd"
   xmlns="http://www.w3.org/2000/svg"
   xmlns:svg="http://www.w3.org/2000/svg"><sodipodi:namedview
     id="namedview7"
     pagecolor="#ffffff"
     bordercolor="#000000"
     borderopacity="0.25"
     inkscape:showpageshadow="2"
     inkscape:pageopacity="0.0"
     inkscape:pagecheckerboard="0"
     inkscape:deskcolor="#d1d1d1"
     inkscape:document-units="mm"
     showgrid="false"
     inkscape:zoom="0.16173406"
     inkscape:cx="-7558.7047"
     inkscape:cy="1196.4085"
     inkscape:window-width="3840"
     inkscape:window-height="1536"
     inkscape:window-x="0"
     inkscape:window-y="27"
     inkscape:window-maximized="1"
     inkscape:current-layer="layer1" /><defs
     id="defs2" /><g
     inkscape:label="Layer 1"
     inkscape:groupmode="layer"
     id="layer1"><path
       style="fill:#eaeaea;fill-opacity:1;stroke:#000000;stroke-width:4.3;stroke-linecap:round;stroke-linejoin:round;stroke-dasharray:none;stroke-opacity:1"
       d="m 43.372279,73.09471 -3.751768,15.168267 1.668828,22.552043 6.581502,-6.77796 z"
       id="path6119"
       sodipodi:nodetypes="ccccc" /><path
       style="fill:#eaeaea;fill-opacity:1;stroke:#000000;stroke-width:4.3;stroke-linecap:round;stroke-linejoin:round;stroke-dasharray:none;stroke-opacity:1"
       d="m 159.26421,69.779462 4.40524,17.810314 -1.9595,23.994814 -7.72787,-7.95856 z"
       id="path7297" /><path
       id="path923"
       style="fill:#dedede;fill-opacity:1;stroke:#000000;stroke-width:4.3;stroke-linecap:round;stroke-linejoin:round;stroke-dasharray:none;stroke-dashoffset:0;stroke-opacity:1"
       d="m 48.532303,103.30945 -0.9958,0.0165 c 0,0 -7.794243,7.83515 -9.397883,12.39615 -1.39606,3.97062 -1.98673,8.5624 -0.80253,12.60129 3.9243,13.38433 24.98866,31.44976 24.98866,31.44976 0,0 3.89859,14.72318 8.89506,18.30483 3.14821,2.25676 7.58986,2.79868 11.41377,2.18075 4.89586,-0.79116 8.18158,-6.04019 12.99042,-7.25279 3.78672,-0.95484 8.07086,-1.22732 11.71454,0.17777 2.65988,1.02574 3.73901,1.51379 6.42441,2.47065 3.86345,1.37666 8.4283,4.09287 12.29589,2.728 5.61361,-1.98106 15.46211,-15.84296 15.46211,-15.84296 0,0 6.98355,-9.70288 11.29802,-16.9876 4.52382,-7.63821 13.60915,-13.74479 14.07252,-22.60999 0.2914,-5.57521 -7.31945,-15.06471 -7.31945,-15.06471 l -4.54184,-3.45354 c -0.35306,1.47315 -0.79637,2.9204 -1.38079,4.3279 -4.88336,11.76083 -14.67922,20.81416 -21.85087,31.33711 -5.14933,7.55557 -7.16903,18.46929 -15.20527,22.83064 -8.77902,4.76449 -21.35601,5.40311 -29.96355,0.33538 -7.69213,-4.52875 -10.70176,-17.06032 -15.5174,-24.57623 -7.77191,-12.12982 -16.839887,-20.6601 -22.112347,-34.06666 -0.16933,-0.43058 -0.32276,-0.86536 -0.46767,-1.30225 z"
       sodipodi:nodetypes="ccsscsssssscssccssssssc" /><path
       style="fill:#dedede;fill-opacity:1;stroke:#00112b;stroke-width:4.3;stroke-linecap:round;stroke-linejoin:round;stroke-dasharray:none;stroke-dashoffset:0;stroke-opacity:1"
       d="m 32.797999,43.114466 c 0,0 11.101041,-6.41756 17.633075,-8.428814 14.170975,-4.363327 28.995677,-7.135 43.812809,-7.68992 15.947517,-0.597252 32.015347,1.489017 47.642257,4.72631 9.20714,1.907368 26.86627,9.125198 26.86627,9.125198 L 147.83399,93.980514 109.61812,109.35573 83.595893,111.58432 46.341858,75.893679 Z"
       id="path6879"
       sodipodi:nodetypes="cssscccccc" /><path
       style="fill:none;fill-opacity:1;stroke:#000000;stroke-width:5.21229;stroke-linecap:round;stroke-linejoin:round;stroke-dasharray:none;stroke-dashoffset:0;stroke-opacity:1"
       d="m 53.831074,71.318329 c 0,0 17.22455,7.532625 46.373036,7.410357 34.10883,-0.143072 49.67183,-9.185368 49.67183,-9.185368 v 0"
       id="path2327"
       sodipodi:nodetypes="cscc" /><path
       style="fill:#000000;fill-opacity:1;stroke:none;stroke-width:1.77673;stroke-linecap:round;stroke-linejoin:round;stroke-dasharray:7.10692, 7.10692"
       d="m 30.827757,42.072374 c -3.317643,4.646421 1.083993,12.998534 3.041441,18.361776 2.390023,6.548458 7.086738,11.407886 9.382892,17.989847 2.987257,8.563009 1.370655,18.276746 4.689845,26.716643 5.272457,13.40657 15.398569,21.40789 23.170491,33.53772 4.815641,7.51591 7.825102,20.04757 15.51724,24.57637 8.607542,5.06773 21.184804,4.42883 29.963834,-0.33566 8.03625,-4.36137 10.0557,-15.27492 15.20504,-22.8305 7.17165,-10.52296 16.96754,-19.57638 21.8509,-31.33722 3.23675,-7.79524 2.25363,-16.781321 4.48893,-24.920465 2.78302,-10.133395 8.43768,-17.991926 11.30859,-28.100767 1.22472,-4.31235 4.98917,-10.998804 2.34704,-14.620328 -2.37235,-3.251756 -8.38069,-3.150071 -11.99628,-1.381044 -5.8891,2.881391 -7.73001,10.740911 -10.21533,16.807792 -2.72687,6.656598 -3.49565,10.985926 -5.81566,17.795016 -1.97024,5.78242 -4.2178,14.142899 -8.61517,18.383326 -5.42999,5.236173 -9.26305,4.599273 -16.15564,7.66423 -5.30523,2.35911 -12.10071,8.40242 -17.90231,8.1737 -7.706092,-0.30378 -13.664656,-6.58513 -20.6644,-9.822397 C 75.287836,96.352616 69.188847,95.82119 65.664863,91.386197 59.858885,84.079264 60.433593,72.730475 56.242456,63.448413 52.676519,55.550971 49.199176,45.257851 41.389821,41.502919 38.386607,40.058898 32.764165,39.360396 30.827757,42.072374 Z"
       id="path368"
       sodipodi:nodetypes="sssssssssssssssssssssss" /><path
       style="fill:#dadad6;fill-opacity:1;stroke:none;stroke-width:1.77673;stroke-linecap:round;stroke-linejoin:round;stroke-dasharray:7.10692, 7.10692"
       d="m 66.20956,103.62796 c 3.303972,-2.14996 7.562847,2.46332 10.9322,4.50929 2.955043,1.79439 6.668657,3.46484 7.931142,6.68326 0.149551,0.38125 0.152605,0.94419 -0.15066,1.21928 -1.866861,1.69304 -5.066638,0.57039 -7.558252,0.1917 -1.831608,-0.27838 -3.709666,-0.77623 -5.263387,-1.78531 -2.472886,-1.60604 -4.96391,-3.73798 -6.002647,-6.4976 -0.507514,-1.34833 -1.095947,-3.53486 0.1116,-4.32062 z"
       id="path1074"
       sodipodi:nodetypes="ssssssss" /><path
       style="fill:#dadad6;fill-opacity:1;stroke:none;stroke-width:1.77673;stroke-linecap:round;stroke-linejoin:round;stroke-dasharray:7.10692, 7.10692"
       d="m 135.59062,101.64765 c -3.34628,-2.083497 -7.51213,2.61396 -10.83993,4.72685 -2.91859,1.85307 -6.59808,3.59741 -7.79598,6.84041 -0.14186,0.38416 -0.13486,0.94687 0.1749,1.21603 1.90034,1.65539 5.07705,0.46902 7.56061,0.0407 1.82567,-0.31493 3.69338,-0.85021 5.22663,-1.89013 2.44032,-1.65513 4.88823,-3.83642 5.87162,-6.61626 0.48046,-1.35819 1.02508,-3.55603 -0.19794,-4.31751 z"
       id="path2249"
       sodipodi:nodetypes="ssssssss" /><path
       id="path1878"
       style="fill:#6f6f6f;fill-opacity:1;stroke:#000000;stroke-width:4.3;stroke-linecap:round;stroke-linejoin:round;stroke-dasharray:none;stroke-dashoffset:0;stroke-opacity:1"
       d="M 78.671684 160.06103 C 77.333957 160.06799 75.960529 160.15558 74.989738 160.41708 C 72.394549 161.11613 69.918376 162.51119 67.940556 164.33105 C 66.744664 165.43144 65.232017 168.36994 65.222375 168.38869 C 66.792451 172.29242 68.882795 176.40267 71.219942 178.07802 C 74.368149 180.33478 78.80981 180.87669 82.633716 180.25876 C 86.493322 179.63506 89.354457 176.24712 92.747827 174.24414 L 95.333716 166.63272 L 94.423177 166.16143 C 91.63476 165.59672 88.983491 164.64035 86.629854 163.25463 C 85.306007 162.47522 84.123561 161.45436 83.044027 160.26722 L 83.031624 160.26102 C 83.031624 160.26102 80.901228 160.04943 78.671684 160.06103 z " /><circle
       style="fill:#000000;fill-opacity:1;stroke:none;stroke-width:1.77673;stroke-linecap:round;stroke-linejoin:round;stroke-dasharray:7.10692, 7.10692"
       id="path6113"
       cx="80.040543"
       cy="170.62506"
       r="4.5215402" /><path
       id="path1750"
       style="fill:#6f6f6f;fill-opacity:1;stroke:#000000;stroke-width:4.3;stroke-linecap:round;stroke-linejoin:round;stroke-dasharray:none;stroke-dashoffset:0;stroke-opacity:1"
       d="m 126.44758,158.72985 c -2.2491,-0.006 -4.25349,0.23771 -4.25349,0.23771 l -1.50068,0.70228 c -1.18213,1.28444 -2.52414,2.39417 -4.10001,3.24941 -2.95722,1.60493 -6.3459,2.7394 -9.86813,3.3476 l 0.6134,6.91689 c 2.65988,1.02574 4.26805,3.63044 6.95345,4.58729 3.86345,1.37666 7.89927,1.97623 11.76685,0.61136 3.66361,-1.2929 9.0884,-7.60137 12.44472,-11.85922 -0.84971,-1.15929 -4.41499,-5.86302 -7.19233,-7.09362 -1.21718,-0.53933 -3.11448,-0.69509 -4.86378,-0.6997 z"
       sodipodi:nodetypes="sccscccscss" /><circle
       style="fill:#000000;fill-opacity:1;stroke:none;stroke-width:1.77673;stroke-linecap:round;stroke-linejoin:round;stroke-dasharray:7.10692, 7.10692"
       id="circle6115"
       cx="121.66502"
       cy="170.02916"
       r="4.5215402" /><path
       style="fill:#000000;fill-opacity:1;stroke:none;stroke-width:1.77673;stroke-linecap:round;stroke-linejoin:round;stroke-dasharray:7.10692, 7.10692"
       d="m 94.381057,165.14062 c 0,0 -2.466504,6.13087 -1.68356,9.25009 0.326093,1.29915 0.702755,2.0443 1.76774,2.85665 1.564115,1.19306 3.181105,2.75545 5.143455,2.89384 2.024398,0.1427 4.026048,-1.02468 5.672608,-2.21105 1.17459,-0.84633 2.39414,-1.94318 2.77706,-3.33937 0.74833,-2.72847 -1.33846,-8.38152 -1.33846,-8.38152 z"
       id="path6117"
       sodipodi:nodetypes="cssssscc" /><path
       style="fill:#000000;fill-opacity:1;stroke:none;stroke-width:2.61618;stroke-linecap:round;stroke-linejoin:round;stroke-dasharray:10.4647, 10.4647"
       d="m 39.620511,88.262977 -4.783469,3.108425 0.764127,5.851495 5.031921,-0.692592 z"
       id="path6769"
       sodipodi:nodetypes="ccccc" /><path
       style="fill:#262626;fill-opacity:1;stroke:none;stroke-width:1.77673;stroke-linecap:round;stroke-linejoin:round;stroke-dasharray:7.10692, 7.10692"
       d="m 126.4917,150.59091 -11.66802,-4.78854 -6.55923,0.80984 -5.04489,-2.08647 -5.021837,1.95538 -7.557948,0.36831 -12.26297,6.49713 10.099165,-9.97552 5.952918,-2.2954 9.198942,-4.99648 6.52268,3.86674 6.93485,2.70326 z"
       id="path7357"
       sodipodi:nodetypes="ccccccccccccc" /><path
       style="opacity:1;fill:#565656;fill-opacity:1;stroke:none;stroke-width:0.640001;stroke-linecap:round;stroke-linejoin:round;stroke-dasharray:2.56, 2.56"
       d="m 113.61793,141.29753 v 4.65371 l 1.20575,-0.14887 3.69763,1.5175 0.23614,-3.25897 c 0,0 -1.67209,-1.41174 -1.67209,-1.41174 z"
       id="path8700" /><path
       style="opacity:1;fill:#565656;fill-opacity:1;stroke:none;stroke-width:0.640001;stroke-linecap:round;stroke-linejoin:round;stroke-dasharray:2.56, 2.56"
       d="m 106.88917,138.01253 v 8.03089 l 1.88697,0.50561 2.76792,-0.34174 v -5.71817 z"
       id="path9650" /><path
       style="opacity:1;fill:#565656;fill-opacity:1;stroke:none;stroke-width:0.640001;stroke-linecap:round;stroke-linejoin:round;stroke-dasharray:2.56, 2.56"
       d="m 104.57353,145.08571 -1.35397,-0.55997 -2.51092,0.97769 -0.10675,-7.78071 3.02594,-1.64356 0.87992,0.52163 z"
       id="path9656"
       sodipodi:nodetypes="ccccccc" /><path
       style="opacity:1;fill:#565656;fill-opacity:1;stroke:none;stroke-width:0.640001;stroke-linecap:round;stroke-linejoin:round;stroke-dasharray:2.56, 2.56"
       d="m 98.197722,146.48112 -3.778975,0.18415 0.01013,-5.58963 3.869298,-2.10163 z"
       id="path9658"
       sodipodi:nodetypes="ccccc" /><path
       style="opacity:1;fill:#565656;fill-opacity:1;stroke:none;stroke-width:0.640001;stroke-linecap:round;stroke-linejoin:round;stroke-dasharray:2.56, 2.56"
       d="m 90.639775,146.84943 -4.701456,2.49091 -0.04513,-3.83691 2.582783,-2.13239 2.219271,-0.7497 z"
       id="path9660"
       sodipodi:nodetypes="cccccc" /><path
       sodipodi:type="star"
       style="fill:#0d0d0d;fill-opacity:1;stroke:#000000;stroke-width:1.5;stroke-linecap:round;stroke-linejoin:round;stroke-dasharray:none;stroke-dashoffset:0;stroke-opacity:1"
       id="path2211"
       inkscape:flatsided="true"
       sodipodi:sides="5"
       sodipodi:cx="-3.3724101"
       sodipodi:cy="156.20624"
       sodipodi:r1="10.626816"
       sodipodi:r2="8.5972748"
       sodipodi:arg1="1.5707963"
       sodipodi:arg2="2.1991149"
       inkscape:rounded="0"
       inkscape:randomized="0"
       d="m -3.3724098,166.83305 -10.1067022,-7.34295 3.8604161,-11.88114 12.4925712,0 3.8604171,11.88114 z"
       inkscape:transform-center-y="1.0453287"
       transform="matrix(1.0301188,0,0,1.0301188,104.32677,11.635305)"
       inkscape:transform-center-x="2.9414341e-06" /><path
       style="fill:none;fill-opacity:1;stroke:#000001;stroke-width:4.3;stroke-linecap:round;stroke-linejoin:round;stroke-dasharray:none;stroke-dashoffset:0;stroke-opacity:1"
       d="m 59.95377,124.07336 c 0,0 -4.971617,-0.84522 -11.332935,3.28609 -7.140205,4.63715 -7.360218,8.71971 -7.360218,8.71971"
       id="path2267"
       sodipodi:nodetypes="csc" /><path
       style="fill:none;fill-opacity:1;stroke:#000001;stroke-width:4.3;stroke-linecap:round;stroke-linejoin:round;stroke-dasharray:none;stroke-dashoffset:0;stroke-opacity:1"
       d="m 142.5211,126.22723 c 0,0 6.34305,-1.35857 13.00943,1.4823 4.76069,2.02877 6.58914,6.05816 6.58914,6.05816"
       id="path2269"
       sodipodi:nodetypes="csc" /><path
       style="fill:#000000;fill-opacity:1;stroke:none;stroke-width:2.61618;stroke-linecap:round;stroke-linejoin:round;stroke-dasharray:10.4647, 10.4647"
       d="m 163.78319,88.262977 4.78347,3.108425 -0.76412,5.851495 -5.03192,-0.692592 z"
       id="path2271"
       sodipodi:nodetypes="ccccc" /><path
       style="opacity:1;fill:#fbfcfe;fill-opacity:1;stroke:none;stroke-width:4.76578;stroke-linecap:round;stroke-linejoin:round;stroke-dasharray:none;stroke-dashoffset:0;stroke-opacity:1"
       d="m 77.532561,33.437748 c -6.142822,2.279541 -15.08438,9.382905 -16.566233,14.913261 -1.305552,4.872381 -1.25619,13.681806 2.660023,14.458534 3.403928,0.675123 6.541528,0.01329 8.546893,-2.818857 2.110477,-2.980588 2.269394,-7.050062 3.858837,-10.338174 3.264865,-6.754088 22.874302,-6.740109 22.251583,-12.020904 -0.826432,-7.008328 -14.13507,-6.649004 -20.751103,-4.19386 z"
       id="path2499"
       sodipodi:nodetypes="sssssss" /></g></svg>
