<?xml version="1.0" encoding="UTF-8" standalone="no"?>
<!-- Created with Inkscape (http://www.inkscape.org/) -->

<svg
   width="210mm"
   height="210mm"
   viewBox="0 0 210 210"
   version="1.1"
   id="svg5"
   xml:space="preserve"
   inkscape:version="1.2.2 (732a01da63, 2022-12-09, custom)"
   sodipodi:docname="logo.svg"
   xmlns:inkscape="http://www.inkscape.org/namespaces/inkscape"
   xmlns:sodipodi="http://sodipodi.sourceforge.net/DTD/sodipodi-0.dtd"
   xmlns="http://www.w3.org/2000/svg"
   xmlns:svg="http://www.w3.org/2000/svg"><sodipodi:namedview
     id="namedview7"
     pagecolor="#ffffff"
     bordercolor="#000000"
     borderopacity="0.25"
     inkscape:showpageshadow="2"
     inkscape:pageopacity="0.0"
     inkscape:pagecheckerboard="0"
     inkscape:deskcolor="#d1d1d1"
     inkscape:document-units="mm"
     showgrid="false"
     inkscape:zoom="0.16173406"
     inkscape:cx="451.35824"
     inkscape:cy="983.09533"
     inkscape:window-width="1823"
     inkscape:window-height="1119"
     inkscape:window-x="75"
     inkscape:window-y="984"
     inkscape:window-maximized="0"
     inkscape:current-layer="layer1" /><defs
     id="defs2" /><g
     inkscape:label="Layer 1"
     inkscape:groupmode="layer"
     id="layer1"><path
       style="fill:#eaeaea;fill-opacity:1;stroke:none;stroke-width:3.07188;stroke-linecap:round;stroke-linejoin:round;stroke-dasharray:12.2875, 12.2875"
       d="m 159.26421,69.779462 4.40524,17.810314 -1.9595,23.994814 -7.72787,-7.95856 z"
       id="path7297" /><path
       style="fill:#000000;fill-opacity:1;stroke:none;stroke-width:3.07188;stroke-linecap:round;stroke-linejoin:round;stroke-dasharray:12.2875, 12.2875"
       d="m 161.48017,88.022497 5.61668,3.649875 -0.89724,6.870705 -5.90839,-0.813229 z"
       id="path7299" /><path
       style="fill:#dedede;fill-opacity:1;stroke:none;stroke-width:1.77673;stroke-linecap:round;stroke-linejoin:round;stroke-dasharray:7.10692, 7.10692"
       d="m 31.330687,41.542143 c 0,0 12.159374,-6.41756 18.691408,-8.428814 14.170975,-4.363327 28.995677,-7.135 43.812809,-7.68992 15.947516,-0.597252 32.015346,1.489017 47.642256,4.72631 9.20714,1.907368 26.86627,8.596031 26.86627,8.596031 L 147.42501,93.995691 109.20914,109.37091 83.186914,111.5995 45.932879,75.908856 Z"
       id="path6879"
       sodipodi:nodetypes="cssscccccc" /><path
       style="fill:#eaeaea;fill-opacity:1;stroke:none;stroke-width:2.61618;stroke-linecap:round;stroke-linejoin:round;stroke-dasharray:10.4647, 10.4647"
       d="m 43.372279,73.09471 -3.751768,15.168267 1.668828,22.552043 6.581502,-6.77796 z"
       id="path6119"
       sodipodi:nodetypes="ccccc" /><path
       style="fill:#dedede;fill-opacity:1;stroke:none;stroke-width:1.77673;stroke-linecap:round;stroke-linejoin:round;stroke-dasharray:7.10692, 7.10692"
       d="m 46.47837,103.85517 c 0,0 -6.735807,7.30587 -8.339442,11.86687 -1.396067,3.97063 -1.987045,8.5623 -0.80284,12.6012 3.924301,13.38434 24.988887,31.45017 24.988887,31.45017 0,0 3.898277,14.72291 8.894755,18.30456 3.148209,2.25675 7.590141,2.79899 11.414056,2.18105 4.895858,-0.79117 8.181477,-6.04068 12.990326,-7.25327 3.78672,-0.95485 8.070708,-1.22686 11.714388,0.17823 2.65988,1.02575 3.73916,4.68837 6.42456,5.64524 3.86345,1.37667 8.42841,0.91815 12.29601,-0.44673 5.61361,-1.98106 15.46181,-15.84314 15.46181,-15.84314 0,0 6.9838,-9.70262 11.29827,-16.98734 4.52383,-7.63822 13.60924,-13.74505 14.07261,-22.61026 0.2914,-5.57522 -7.31948,-15.06445 -7.31948,-15.06445 l -7.6125,-5.7892 z"
       id="path3741"
       sodipodi:nodetypes="csscsssssscssccc" /><path
       id="path8695"
       style="fill:#000000;fill-opacity:1;stroke:none;stroke-width:0.640001;stroke-linecap:round;stroke-linejoin:round;stroke-dasharray:2.56, 2.56;opacity:0.08338649"
       d="M 99.819747 25.322485 C 97.823646 25.316275 95.828537 25.348598 93.835099 25.423254 C 91.023932 25.528536 88.212319 25.714561 85.405123 25.975159 L 50.02227 33.113224 C 50.02227 33.113224 70.488457 59.755173 85.172062 66.504985 C 105.21494 75.718363 131.66289 83.849076 151.00525 73.243591 C 153.65368 71.791451 156.00999 69.113282 158.07149 65.876082 L 168.34321 38.745955 C 168.34321 38.745955 150.68428 32.056947 141.47715 30.149581 C 127.80362 27.316952 113.79246 25.365958 99.819747 25.322485 z " /><path
       style="fill:#000000;fill-opacity:1;stroke:none;stroke-width:1.77673;stroke-linecap:round;stroke-linejoin:round;stroke-dasharray:7.10692, 7.10692"
       d="m 30.827757,42.072374 c -3.317643,4.646421 1.083993,12.998534 3.041441,18.361776 2.390023,6.548458 7.086738,11.407886 9.382892,17.989847 2.987257,8.563009 1.370655,18.276746 4.689845,26.716643 5.272457,13.40657 15.398569,21.40789 23.170491,33.53772 4.815641,7.51591 7.825102,20.04757 15.51724,24.57637 8.607542,5.06773 21.184804,4.42883 29.963834,-0.33566 8.03625,-4.36137 10.0557,-15.27492 15.20504,-22.8305 7.17165,-10.52296 16.96754,-19.57638 21.8509,-31.33722 3.23675,-7.79524 2.25363,-16.781321 4.48893,-24.920465 2.78302,-10.133395 8.43768,-17.991926 11.30859,-28.100767 1.22472,-4.31235 4.98917,-10.998804 2.34704,-14.620328 -2.37235,-3.251756 -8.38069,-3.150071 -11.99628,-1.381044 -5.8891,2.881391 -7.73001,10.740911 -10.21533,16.807792 -2.72687,6.656598 -3.49565,10.985926 -5.81566,17.795016 -1.97024,5.78242 -4.2178,14.142899 -8.61517,18.383326 -5.42999,5.236173 -9.26305,4.599273 -16.15564,7.66423 -5.30523,2.35911 -12.10071,8.40242 -17.90231,8.1737 -7.706092,-0.30378 -13.664656,-6.58513 -20.6644,-9.822397 C 75.287836,96.352616 69.188847,95.82119 65.664863,91.386197 59.858885,84.079264 60.433593,72.730475 56.242456,63.448413 52.676519,55.550971 49.199176,45.257851 41.389821,41.502919 38.386607,40.058898 32.764165,39.360396 30.827757,42.072374 Z"
       id="path368"
       sodipodi:nodetypes="sssssssssssssssssssssss" /><path
       style="fill:#dadad6;fill-opacity:1;stroke:none;stroke-width:1.77673;stroke-linecap:round;stroke-linejoin:round;stroke-dasharray:7.10692, 7.10692"
       d="m 66.20956,103.62796 c 3.303972,-2.14996 7.562847,2.46332 10.9322,4.50929 2.955043,1.79439 6.668657,3.46484 7.931142,6.68326 0.149551,0.38125 0.152605,0.94419 -0.15066,1.21928 -1.866861,1.69304 -5.066638,0.57039 -7.558252,0.1917 -1.831608,-0.27838 -3.709666,-0.77623 -5.263387,-1.78531 -2.472886,-1.60604 -4.96391,-3.73798 -6.002647,-6.4976 -0.507514,-1.34833 -1.095947,-3.53486 0.1116,-4.32062 z"
       id="path1074"
       sodipodi:nodetypes="ssssssss" /><path
       style="fill:#dadad6;fill-opacity:1;stroke:none;stroke-width:1.77673;stroke-linecap:round;stroke-linejoin:round;stroke-dasharray:7.10692, 7.10692"
       d="m 135.59062,101.64765 c -3.34628,-2.083497 -7.51213,2.61396 -10.83993,4.72685 -2.91859,1.85307 -6.59808,3.59741 -7.79598,6.84041 -0.14186,0.38416 -0.13486,0.94687 0.1749,1.21603 1.90034,1.65539 5.07705,0.46902 7.56061,0.0407 1.82567,-0.31493 3.69338,-0.85021 5.22663,-1.89013 2.44032,-1.65513 4.88823,-3.83642 5.87162,-6.61626 0.48046,-1.35819 1.02508,-3.55603 -0.19794,-4.31751 z"
       id="path2249"
       sodipodi:nodetypes="ssssssss" /><circle
       style="fill:#000000;fill-opacity:1;stroke:none;stroke-width:1.77673;stroke-linecap:round;stroke-linejoin:round;stroke-dasharray:7.10692, 7.10692"
       id="path6113"
       cx="79.511375"
       cy="171.15422"
       r="4.5215402" /><circle
       style="fill:#000000;fill-opacity:1;stroke:none;stroke-width:1.77673;stroke-linecap:round;stroke-linejoin:round;stroke-dasharray:7.10692, 7.10692"
       id="circle6115"
       cx="122.19419"
       cy="170.02916"
       r="4.5215402" /><path
       style="fill:#000000;fill-opacity:1;stroke:none;stroke-width:1.77673;stroke-linecap:round;stroke-linejoin:round;stroke-dasharray:7.10692, 7.10692"
       d="m 94.381057,165.14062 c 0,0 -3.524837,6.13087 -2.741893,9.25009 0.326093,1.29915 1.761088,2.0443 2.826073,2.85665 1.564115,1.19306 3.181105,2.75545 5.143455,2.89384 2.024398,0.1427 4.026048,-1.02468 5.672608,-2.21105 1.17459,-0.84633 2.39414,-1.94318 2.77706,-3.33937 0.74833,-2.72847 -1.33846,-8.38152 -1.33846,-8.38152 z"
       id="path6117"
       sodipodi:nodetypes="cssssscc" /><path
       style="fill:#000000;fill-opacity:1;stroke:none;stroke-width:2.61618;stroke-linecap:round;stroke-linejoin:round;stroke-dasharray:10.4647, 10.4647"
       d="m 41.485013,88.631532 -4.783469,3.108425 0.764127,5.851495 5.031921,-0.692592 z"
       id="path6769"
       sodipodi:nodetypes="ccccc" /><path
       style="fill:#262626;fill-opacity:1;stroke:none;stroke-width:1.77673;stroke-linecap:round;stroke-linejoin:round;stroke-dasharray:7.10692, 7.10692"
       d="m 126.4917,150.59091 -11.66802,-4.78854 -6.55923,0.80984 -5.04489,-2.08647 -5.021837,1.95538 -7.557948,0.36831 -12.26297,6.49713 10.099165,-9.97552 5.952918,-2.2954 9.198942,-4.99648 6.52268,3.86674 6.93485,2.70326 z"
       id="path7357"
       sodipodi:nodetypes="ccccccccccccc" /><path
       style="opacity:1;fill:#565656;fill-opacity:1;stroke:none;stroke-width:0.640001;stroke-linecap:round;stroke-linejoin:round;stroke-dasharray:2.56, 2.56"
       d="m 113.61793,141.29753 v 4.65371 l 1.20575,-0.14887 3.69763,1.5175 0.23614,-3.25897 c 0,0 -1.67209,-1.41174 -1.67209,-1.41174 z"
       id="path8700" /><path
       style="opacity:1;fill:#565656;fill-opacity:1;stroke:none;stroke-width:0.640001;stroke-linecap:round;stroke-linejoin:round;stroke-dasharray:2.56, 2.56"
       d="m 106.88917,138.01253 v 8.03089 l 1.88697,0.50561 2.76792,-0.34174 v -5.71817 z"
       id="path9650" /><path
       style="opacity:1;fill:#565656;fill-opacity:1;stroke:none;stroke-width:0.640001;stroke-linecap:round;stroke-linejoin:round;stroke-dasharray:2.56, 2.56"
       d="m 104.57353,145.08571 -1.35397,-0.55997 -2.51092,0.97769 -0.10675,-7.78071 3.02594,-1.64356 0.87992,0.52163 z"
       id="path9656"
       sodipodi:nodetypes="ccccccc" /><path
       style="opacity:1;fill:#565656;fill-opacity:1;stroke:none;stroke-width:0.640001;stroke-linecap:round;stroke-linejoin:round;stroke-dasharray:2.56, 2.56"
       d="m 98.197722,146.48112 -3.778975,0.18415 0.01013,-5.58963 3.869298,-2.10163 z"
       id="path9658"
       sodipodi:nodetypes="ccccc" /><path
       style="opacity:1;fill:#565656;fill-opacity:1;stroke:none;stroke-width:0.640001;stroke-linecap:round;stroke-linejoin:round;stroke-dasharray:2.56, 2.56"
       d="m 90.639775,146.84943 -4.701456,2.49091 -0.04513,-3.83691 2.582783,-2.13239 2.219271,-0.7497 z"
       id="path9660"
       sodipodi:nodetypes="cccccc" /></g></svg>
